<?xml version="1.0" encoding="UTF-8" standalone="no"?>
<!-- Created with Inkscape (http://www.inkscape.org/) -->

<svg
   width="32"
   height="32"
   viewBox="0 0 8.4666665 8.4666669"
   version="1.1"
   id="svg26212"
   inkscape:version="1.3.2 (091e20e, 2023-11-25, custom)"
   sodipodi:docname="buildSplitter.svg"
   inkscape:export-filename="buildBuilding.png"
   inkscape:export-xdpi="96"
   inkscape:export-ydpi="96"
   xmlns:inkscape="http://www.inkscape.org/namespaces/inkscape"
   xmlns:sodipodi="http://sodipodi.sourceforge.net/DTD/sodipodi-0.dtd"
   xmlns="http://www.w3.org/2000/svg"
   xmlns:svg="http://www.w3.org/2000/svg">
  <sodipodi:namedview
     id="namedview26214"
     pagecolor="#626262"
     bordercolor="#eeeeee"
     borderopacity="1"
     inkscape:pageshadow="0"
     inkscape:pageopacity="0"
     inkscape:pagecheckerboard="false"
     inkscape:document-units="mm"
     showgrid="true"
     units="px"
     inkscape:zoom="16.75105"
     inkscape:cx="18.506303"
     inkscape:cy="15.849753"
     inkscape:window-width="1920"
     inkscape:window-height="1017"
     inkscape:window-x="1912"
     inkscape:window-y="-8"
     inkscape:window-maximized="1"
     inkscape:current-layer="layer3"
     inkscape:showpageshadow="0"
     inkscape:deskcolor="#d1d1d1">
    <inkscape:grid
       type="xygrid"
       id="grid26297"
       spacingx="0.26458333"
       spacingy="0.26458333"
       empspacing="4"
       originx="0"
       originy="0"
       units="px"
       visible="true" />
  </sodipodi:namedview>
  <defs
     id="defs26209" />
  <g
     inkscape:groupmode="layer"
     id="layer3"
     inkscape:label="power"
     style="display:inline">
    <g
       id="g3"
       style="display:inline"
       transform="matrix(0.44444444,0,0,0.44444444,4.3509258,0.14699076)">
      <path
         style="fill:#ffffff;fill-opacity:1;stroke:none;stroke-width:0.264583px;stroke-linecap:butt;stroke-linejoin:miter;stroke-opacity:1"
         d="M 7.1437497,7.672916 7.6729163,7.1437493 2.38125,1.8520831 1.8520833,2.3812498 Z"
         id="path2"
         sodipodi:nodetypes="ccccc" />
      <path
         style="fill:#ffffff;fill-opacity:1;stroke:none;stroke-width:0.264583px;stroke-linecap:butt;stroke-linejoin:miter;stroke-opacity:1"
         d="M 2.9104166,1.3229166 1.3229166,2.9104164 1.5874999,3.1749997 1.3229166,3.4395831 1.0583333,3.1749997 0.52916665,3.7041664 1.5874999,4.7624996 2.1166666,4.233333 1.8520833,3.9687497 2.1166666,3.7041664 2.3812499,3.9687497 3.9687499,2.3812498 C 5.2916665,1.0583332 6.3499998,1.0583332 6.3499998,1.0583332 c 0,0 -2.1166666,-1.0583332 -3.4395832,0.2645834 z"
         id="path3"
         sodipodi:nodetypes="cccccccccccscc" />
    </g>
    <path
       style="fill:#ffffff;fill-opacity:0.997519;stroke:none;stroke-width:0.264583px;stroke-linecap:butt;stroke-linejoin:miter;stroke-opacity:1"
       d="m 0.52916664,3.7041664 v 1.0583333 l 0.79375006,0 c 0.79375,0 0.7937499,1.8520831 0.7937499,1.8520831 l -0.5291665,-1e-7 1.058333,1.3229167 1.0583333,-1.3229167 -0.5291665,1e-7 c 0,0 0,-1.8520832 -0.5291666,-1.8520832 l 2.1166663,1e-7 V 5.2916661 L 5.820833,4.233333 4.7624996,3.1749997 v 0.5291667 l -2.1166664,0 c 0.5291666,0 0.5291665,-1.5874999 0.5291665,-1.5874999 H 3.7041662 L 2.6458329,1.0583332 1.5874999,2.1166665 h 0.5291665 c 0,0 10e-8,1.5874998 -0.7937498,1.5874999 z"
       id="path6"
       sodipodi:nodetypes="ccscccccccccccccccccsc" />
  </g>
</svg>
