<?xml version="1.0" encoding="UTF-8" standalone="no"?>
<!-- Created with Inkscape (http://www.inkscape.org/) -->

<svg
   width="32"
   height="32"
   viewBox="0 0 8.4666665 8.4666669"
   version="1.1"
   id="svg26212"
   inkscape:version="1.3.2 (091e20e, 2023-11-25, custom)"
   sodipodi:docname="buildBuilding.svg"
   inkscape:export-filename="moveBuilding.png"
   inkscape:export-xdpi="96"
   inkscape:export-ydpi="96"
   xmlns:inkscape="http://www.inkscape.org/namespaces/inkscape"
   xmlns:sodipodi="http://sodipodi.sourceforge.net/DTD/sodipodi-0.dtd"
   xmlns="http://www.w3.org/2000/svg"
   xmlns:svg="http://www.w3.org/2000/svg">
  <sodipodi:namedview
     id="namedview26214"
     pagecolor="#626262"
     bordercolor="#eeeeee"
     borderopacity="1"
     inkscape:pageshadow="0"
     inkscape:pageopacity="0"
     inkscape:pagecheckerboard="false"
     inkscape:document-units="mm"
     showgrid="true"
     units="px"
     inkscape:zoom="16.75105"
     inkscape:cx="18.506303"
     inkscape:cy="15.849753"
     inkscape:window-width="1920"
     inkscape:window-height="1017"
     inkscape:window-x="1912"
     inkscape:window-y="-8"
     inkscape:window-maximized="1"
     inkscape:current-layer="layer3"
     inkscape:showpageshadow="0"
     inkscape:deskcolor="#d1d1d1">
    <inkscape:grid
       type="xygrid"
       id="grid26297"
       spacingx="0.26458333"
       spacingy="0.26458333"
       empspacing="4"
       originx="0"
       originy="0"
       units="px"
       visible="true" />
  </sodipodi:namedview>
  <defs
     id="defs26209" />
  <g
     inkscape:groupmode="layer"
     id="layer3"
     inkscape:label="power"
     style="display:inline">
    <path
       id="rect1"
       style="fill:#ffffff;fill-opacity:0.997519;stroke:none;stroke-width:0.264583;stroke-opacity:1"
       d="M 1.8520833 1.0939901 L 1.8520833 6.6502401 L 4.4979167 6.6502401 L 4.4979167 1.0939901 L 1.8520833 1.0939901 z M 2.38125 2.1166667 L 2.9104167 2.1166667 L 2.9104167 3.175 L 2.38125 3.175 L 2.38125 2.1166667 z M 3.4395833 2.1166667 L 3.96875 2.1166667 L 3.96875 3.175 L 3.4395833 3.175 L 3.4395833 2.1166667 z M 2.38125 4.2333333 L 2.9104167 4.2333333 L 2.9104167 5.2916667 L 2.38125 5.2916667 L 2.38125 4.2333333 z M 3.4395833 4.2333333 L 3.96875 4.2333333 L 3.96875 5.2916667 L 3.4395833 5.2916667 L 3.4395833 4.2333333 z " />
    <rect
       style="fill:#ffffff;fill-opacity:0.997519;stroke:none;stroke-width:0.264583;stroke-opacity:1"
       id="rect2"
       width="4.2487969"
       height="1.1906247"
       x="1.0583333"
       y="6.3499994" />
    <g
       id="g3"
       style="display:inline"
       transform="matrix(0.44444444,0,0,0.44444444,4.3509258,0.14699076)">
      <path
         style="fill:#ffffff;fill-opacity:1;stroke:none;stroke-width:0.264583px;stroke-linecap:butt;stroke-linejoin:miter;stroke-opacity:1"
         d="M 7.1437497,7.672916 7.6729163,7.1437493 2.38125,1.8520831 1.8520833,2.3812498 Z"
         id="path2"
         sodipodi:nodetypes="ccccc" />
      <path
         style="fill:#ffffff;fill-opacity:1;stroke:none;stroke-width:0.264583px;stroke-linecap:butt;stroke-linejoin:miter;stroke-opacity:1"
         d="M 2.9104166,1.3229166 1.3229166,2.9104164 1.5874999,3.1749997 1.3229166,3.4395831 1.0583333,3.1749997 0.52916665,3.7041664 1.5874999,4.7624996 2.1166666,4.233333 1.8520833,3.9687497 2.1166666,3.7041664 2.3812499,3.9687497 3.9687499,2.3812498 C 5.2916665,1.0583332 6.3499998,1.0583332 6.3499998,1.0583332 c 0,0 -2.1166666,-1.0583332 -3.4395832,0.2645834 z"
         id="path3"
         sodipodi:nodetypes="cccccccccccscc" />
    </g>
  </g>
</svg>
