<?xml version="1.0" encoding="UTF-8" standalone="no"?>
<!-- Created with Inkscape (http://www.inkscape.org/) -->

<svg
   width="64"
   height="64"
   viewBox="0 0 16.933333 16.933333"
   version="1.1"
   id="svg5"
   inkscape:version="1.1.2 (b8e25be833, 2022-02-05)"
   sodipodi:docname="furnace.svg"
   inkscape:export-filename="furnace2.png"
   inkscape:export-xdpi="96"
   inkscape:export-ydpi="96"
   xmlns:inkscape="http://www.inkscape.org/namespaces/inkscape"
   xmlns:sodipodi="http://sodipodi.sourceforge.net/DTD/sodipodi-0.dtd"
   xmlns="http://www.w3.org/2000/svg"
   xmlns:svg="http://www.w3.org/2000/svg">
  <sodipodi:namedview
     id="namedview7"
     pagecolor="#ffffff"
     bordercolor="#666666"
     borderopacity="1.0"
     inkscape:pageshadow="2"
     inkscape:pageopacity="0.0"
     inkscape:pagecheckerboard="0"
     inkscape:document-units="px"
     showgrid="true"
     units="px"
     inkscape:zoom="11.859035"
     inkscape:cx="19.141524"
     inkscape:cy="31.958755"
     inkscape:window-width="1920"
     inkscape:window-height="1017"
     inkscape:window-x="-8"
     inkscape:window-y="-8"
     inkscape:window-maximized="1"
     inkscape:current-layer="g21132"
     inkscape:snap-smooth-nodes="true"
     width="64px">
    <inkscape:grid
       type="xygrid"
       id="grid9"
       empspacing="4"
       spacingx="0.26458333"
       spacingy="0.26458333" />
  </sodipodi:namedview>
  <defs
     id="defs2">
    <inkscape:path-effect
       effect="fillet_chamfer"
       id="path-effect2131"
       is_visible="true"
       lpeversion="1"
       satellites_param="F,0,0,1,0,1,0,1 @ F,0,0,1,0,1,0,1 @ F,0,0,1,0,1,0,1 @ F,0,0,1,0,1,0,1 @ F,0,0,1,0,1,0,1 @ F,0,0,1,0,1,0,1 @ F,0,0,1,0,1,0,1"
       unit="px"
       method="auto"
       mode="F"
       radius="1"
       chamfer_steps="1"
       flexible="false"
       use_knot_distance="true"
       apply_no_radius="true"
       apply_with_radius="true"
       only_selected="false"
       hide_knots="false" />
    <marker
       style="overflow:visible"
       id="Arrow1Mend"
       refX="0"
       refY="0"
       orient="auto"
       inkscape:stockid="Arrow1Mend"
       inkscape:isstock="true">
      <path
         transform="matrix(-0.4,0,0,-0.4,-4,0)"
         style="fill:context-stroke;fill-rule:evenodd;stroke:context-stroke;stroke-width:1pt"
         d="M 0,0 5,-5 -12.5,0 5,5 Z"
         id="path8467" />
    </marker>
    <marker
       style="overflow:visible"
       id="marker8736"
       refX="0"
       refY="0"
       orient="auto"
       inkscape:stockid="Arrow1Mstart"
       inkscape:isstock="true">
      <path
         transform="matrix(0.4,0,0,0.4,4,0)"
         style="fill:context-stroke;fill-rule:evenodd;stroke:context-stroke;stroke-width:1pt"
         d="M 0,0 5,-5 -12.5,0 5,5 Z"
         id="path8734" />
    </marker>
    <marker
       style="overflow:visible"
       id="Arrow1Mstart"
       refX="0"
       refY="0"
       orient="auto"
       inkscape:stockid="Arrow1Mstart"
       inkscape:isstock="true">
      <path
         transform="matrix(0.4,0,0,0.4,4,0)"
         style="fill:context-stroke;fill-rule:evenodd;stroke:context-stroke;stroke-width:1pt"
         d="M 0,0 5,-5 -12.5,0 5,5 Z"
         id="path8464" />
    </marker>
    <marker
       style="overflow:visible"
       id="Arrow1Lstart"
       refX="0"
       refY="0"
       orient="auto"
       inkscape:stockid="Arrow1Lstart"
       inkscape:isstock="true">
      <path
         transform="matrix(0.8,0,0,0.8,10,0)"
         style="fill:context-stroke;fill-rule:evenodd;stroke:context-stroke;stroke-width:1pt"
         d="M 0,0 5,-5 -12.5,0 5,5 Z"
         id="path8458" />
    </marker>
    <pattern
       patternUnits="userSpaceOnUse"
       width="16"
       height="63.999998"
       id="pattern5307">
      <rect
         style="fill:#d5d500;fill-opacity:1;stroke:none;stroke-width:0.999999;stroke-miterlimit:4;stroke-dasharray:none;stop-color:#000000"
         id="rect4070"
         width="7.9999995"
         height="63.999996"
         x="0"
         y="0" />
      <rect
         style="fill:#d5d5d5;fill-opacity:1;stroke:none;stroke-width:0.999999;stroke-miterlimit:4;stroke-dasharray:none;stop-color:#000000"
         id="rect4674"
         width="7.9999995"
         height="63.999996"
         x="8.000001"
         y="0" />
    </pattern>
    <pattern
       patternUnits="userSpaceOnUse"
       width="16.000002"
       height="63.999998"
       patternTransform="translate(-24.000002)"
       id="pattern7052">
      <rect
         style="opacity:1;fill:#d50000;fill-opacity:1;stroke:none;stroke-width:0.999999;stroke-miterlimit:4;stroke-dasharray:none;stroke-opacity:1;stop-color:#000000"
         id="rect6111"
         width="8.0000019"
         height="63.999996"
         x="0"
         y="3.4877121e-07" />
      <rect
         style="opacity:1;fill:#1f0000;fill-opacity:1;stroke:none;stroke-width:0.999999;stroke-miterlimit:4;stroke-dasharray:none;stroke-opacity:1;stop-color:#000000"
         id="rect6230"
         width="8.0000019"
         height="63.999996"
         x="8.000001"
         y="0" />
    </pattern>
  </defs>
  <g
     inkscape:label="レイヤー 1"
     inkscape:groupmode="layer"
     id="layer1">
    <path
       id="path1006"
       style="fill:#b8cad6;fill-opacity:1;stroke:#000000;stroke-width:1;stroke-linecap:butt;stroke-linejoin:round;stroke-miterlimit:4;stroke-dasharray:none;stroke-opacity:1"
       d="M 8,0 0,8 v 16 l 4,4 v 8 l -4,4 v 16 l 8,8 h 16 l 4,-4 h 8 l 4,4 h 16 l 8,-8 V 40.390625 L 60,36 v -8 l 4,-3.714844 V 8 L 56,0 H 39.96875 L 36,4 H 28 L 24,0 Z"
       transform="scale(0.26458333)" />
    <g
       id="g18035">
      <path
         style="opacity:1;fill:#a03d03;fill-opacity:1;stroke:none;stroke-width:0.264583;stroke-linejoin:round;stroke-miterlimit:4;stroke-dasharray:none;stroke-opacity:1;stop-color:#000000"
         id="rect10002"
         width="8.4666672"
         height="8.4666672"
         x="4.2333331"
         y="4.2333331"
         sodipodi:type="rect"
         d="M 4.2333331,4.2333331 H 12.7 V 12.7 H 4.2333331 Z" />
      <path
         id="path16883"
         style="opacity:1;fill:none;fill-opacity:1;stroke:#fc6e1d;stroke-width:0.79375;stroke-linejoin:miter;stroke-miterlimit:4;stroke-dasharray:none;stroke-opacity:1;stop-color:#000000"
         d="m 10.31875,5.5562501 a 0.79374999,0.79374999 0 0 0 -0.7937501,0.79375 v 4.2333329 a 0.79374999,0.79374999 0 0 0 0.7937501,0.79375 0.79374999,0.79374999 0 0 0 0.79375,-0.79375 V 6.3500001 a 0.79374999,0.79374999 0 0 0 -0.79375,-0.79375 z" />
      <path
         id="path16881"
         style="opacity:1;fill:none;fill-opacity:1;stroke:#fc6e1d;stroke-width:0.79375;stroke-linejoin:miter;stroke-miterlimit:4;stroke-dasharray:none;stroke-opacity:1;stop-color:#000000"
         d="m 8.4666666,5.5562499 a 0.79374999,0.79374999 0 0 0 -0.79375,0.79375 v 4.2333331 a 0.79374999,0.79374999 0 0 0 0.79375,0.79375 0.79374999,0.79374999 0 0 0 0.7937499,-0.79375 V 6.3499999 a 0.79374999,0.79374999 0 0 0 -0.7937499,-0.79375 z" />
      <path
         id="rect15651"
         style="opacity:1;fill:none;fill-opacity:1;stroke:#fc6e1d;stroke-width:3;stroke-linejoin:miter;stroke-miterlimit:4;stroke-dasharray:none;stroke-opacity:1;stop-color:#000000"
         d="m 25,21 a 3,3 0 0 0 -3,3 v 16 a 3,3 0 0 0 3,3 3,3 0 0 0 3,-3 V 24 a 3,3 0 0 0 -3,-3 z"
         transform="scale(0.26458333)" />
    </g>
    <g
       id="g21132"
       style="display:inline"
       inkscape:label="furnace1">
      <path
         style="opacity:1;fill:#c34b04;fill-opacity:1;stroke:none;stroke-width:0.26458333;stroke-linejoin:round;stroke-miterlimit:4;stroke-dasharray:none;stroke-opacity:1;stop-color:#000000"
         id="path21122"
         width="8.4666672"
         height="8.4666672"
         x="4.2333331"
         y="4.2333331"
         sodipodi:type="rect"
         d="M 4.2333331,4.2333331 H 12.7 V 12.7 H 4.2333331 Z" />
      <path
         id="path21128"
         style="opacity:1;fill:none;fill-opacity:1;stroke:#fb8441;stroke-width:0.79375;stroke-linejoin:miter;stroke-miterlimit:4;stroke-dasharray:none;stroke-opacity:1;stop-color:#000000"
         d="m 10.31875,5.5562501 a 0.79374999,0.79374999 0 0 0 -0.7937501,0.79375 v 4.2333329 a 0.79374999,0.79374999 0 0 0 0.7937501,0.79375 0.79374999,0.79374999 0 0 0 0.79375,-0.79375 V 6.3500001 a 0.79374999,0.79374999 0 0 0 -0.79375,-0.79375 z" />
      <path
         id="path21126"
         style="opacity:1;fill:none;fill-opacity:1;stroke:#fb8441;stroke-width:0.79375;stroke-linejoin:miter;stroke-miterlimit:4;stroke-dasharray:none;stroke-opacity:1;stop-color:#000000"
         d="m 8.4666666,5.5562499 a 0.79374999,0.79374999 0 0 0 -0.79375,0.79375 v 4.2333331 a 0.79374999,0.79374999 0 0 0 0.79375,0.79375 0.79374999,0.79374999 0 0 0 0.7937499,-0.79375 V 6.3499999 a 0.79374999,0.79374999 0 0 0 -0.7937499,-0.79375 z" />
      <path
         id="path21124"
         style="display:inline;opacity:1;fill:none;fill-opacity:1;stroke:#fb8441;stroke-width:3;stroke-linejoin:miter;stroke-miterlimit:4;stroke-dasharray:none;stroke-opacity:1;stop-color:#000000"
         d="m 25,21 a 3,3 0 0 0 -3,3 v 16 a 3,3 0 0 0 3,3 3,3 0 0 0 3,-3 V 24 a 3,3 0 0 0 -3,-3 z"
         transform="scale(0.26458333)" />
    </g>
    <g
       id="g18549"
       style="display:none"
       inkscape:label="furnace0">
      <path
         style="display:inline;opacity:1;fill:#2e241e;fill-opacity:1;stroke:none;stroke-width:0.264583;stroke-linejoin:round;stroke-miterlimit:4;stroke-dasharray:none;stroke-opacity:1;stop-color:#000000"
         id="path18539"
         width="8.4666672"
         height="8.4666672"
         x="4.2333331"
         y="4.2333331"
         sodipodi:type="rect"
         d="M 4.2333331,4.2333331 H 12.7 V 12.7 H 4.2333331 Z" />
      <path
         id="path18541"
         style="opacity:1;fill:none;fill-opacity:1;stroke:#7f6251;stroke-width:3;stroke-linejoin:miter;stroke-miterlimit:4;stroke-dasharray:none;stroke-opacity:1;stop-color:#000000"
         d="m 25,21 a 3,3 0 0 0 -3,3 v 16 a 3,3 0 0 0 3,3 3,3 0 0 0 3,-3 V 24 a 3,3 0 0 0 -3,-3 z"
         transform="scale(0.26458333)" />
      <path
         id="path18543"
         style="opacity:1;fill:none;fill-opacity:1;stroke:#7f6251;stroke-width:0.79375;stroke-linejoin:miter;stroke-miterlimit:4;stroke-dasharray:none;stroke-opacity:1;stop-color:#000000"
         d="m 8.4666666,5.5562499 a 0.79374999,0.79374999 0 0 0 -0.79375,0.79375 v 4.2333331 a 0.79374999,0.79374999 0 0 0 0.79375,0.79375 0.79374999,0.79374999 0 0 0 0.7937499,-0.79375 V 6.3499999 a 0.79374999,0.79374999 0 0 0 -0.7937499,-0.79375 z" />
      <path
         id="path18545"
         style="opacity:1;fill:none;fill-opacity:1;stroke:#7f6251;stroke-width:0.79375;stroke-linejoin:miter;stroke-miterlimit:4;stroke-dasharray:none;stroke-opacity:1;stop-color:#000000"
         d="m 10.31875,5.5562501 a 0.79374999,0.79374999 0 0 0 -0.7937501,0.79375 v 4.2333329 a 0.79374999,0.79374999 0 0 0 0.7937501,0.79375 0.79374999,0.79374999 0 0 0 0.79375,-0.79375 V 6.3500001 a 0.79374999,0.79374999 0 0 0 -0.79375,-0.79375 z" />
    </g>
    <path
       style="fill:#dce5eb;fill-opacity:1;stroke:#293a47;stroke-width:0.264583px;stroke-linecap:butt;stroke-linejoin:round;stroke-opacity:1"
       d="M 0,6.3499999 1.0583333,6.0854166 V 2.38125 L 0,2.1166666 Z"
       id="path9339"
       sodipodi:nodetypes="ccccc" />
    <path
       style="fill:#dce5eb;fill-opacity:1;stroke:#293a47;stroke-width:0.264583px;stroke-linecap:butt;stroke-linejoin:round;stroke-opacity:1"
       d="M 0,2.1166666 1.0583333,2.38125 2.38125,1.0583333 2.1166666,0 Z"
       id="path12253"
       sodipodi:nodetypes="ccccc" />
    <path
       style="fill:#dce5eb;fill-opacity:1;stroke:#293a47;stroke-width:0.264583px;stroke-linecap:butt;stroke-linejoin:round;stroke-opacity:1"
       d="M 2.1166667,2e-8 2.38125,1.0583333 H 6.0854166 L 6.35,2e-8 Z"
       id="path13000"
       sodipodi:nodetypes="ccccc" />
    <path
       style="fill:#b8cad6;fill-opacity:1;stroke:#000000;stroke-width:0.264583px;stroke-linecap:butt;stroke-linejoin:round;stroke-opacity:1"
       d="M 1.0583333,7.4083332 2.1166666,7.1437499 1.0583333,6.0854166 0,6.3499999 Z"
       id="path13002"
       sodipodi:nodetypes="ccccc" />
    <path
       style="fill:#dce5eb;fill-opacity:1;stroke:#000000;stroke-width:0.264583px;stroke-linecap:butt;stroke-linejoin:round;stroke-opacity:1"
       d="M 1.0583333,9.5249998 2.1166666,9.7895832 V 7.1437499 L 1.0583333,7.4083332 Z"
       id="path13445"
       sodipodi:nodetypes="ccccc" />
    <path
       style="fill:#dce5eb;fill-opacity:1;stroke:#293a47;stroke-width:0.264583px;stroke-linecap:butt;stroke-linejoin:round;stroke-opacity:1"
       d="M 1.9999998e-8,14.816666 1.0583333,14.552083 V 10.847917 L 1.9999998e-8,10.583333 Z"
       id="path13696"
       sodipodi:nodetypes="ccccc" />
    <path
       style="fill:#e1e8ed;fill-opacity:1;stroke:#000000;stroke-width:0.264583px;stroke-linecap:butt;stroke-linejoin:round;stroke-opacity:1"
       d="M 1.0583333,9.5249999 2.1166666,9.7895832 1.0583333,10.847917 1.9999998e-8,10.583333 Z"
       id="path13698"
       sodipodi:nodetypes="ccccc" />
    <path
       style="fill:#7a9cb3;fill-opacity:1;stroke:#293a47;stroke-width:0.264583px;stroke-linecap:butt;stroke-linejoin:round;stroke-opacity:1"
       d="M 0,14.816666 1.0583333,14.552083 2.38125,15.875 2.1166666,16.933333 Z"
       id="path13700"
       sodipodi:nodetypes="ccccc" />
    <path
       style="fill:#7a9cb3;fill-opacity:1;stroke:#293a47;stroke-width:0.264583px;stroke-linecap:butt;stroke-linejoin:round;stroke-opacity:1"
       d="M 16.933333,2.116667 15.875,2.38125 14.552083,1.058333 14.816666,-7e-8 Z"
       id="path14944"
       sodipodi:nodetypes="ccccc" />
    <path
       style="fill:#dce5eb;fill-opacity:1;stroke:#293a47;stroke-width:0.264583px;stroke-linecap:butt;stroke-linejoin:round;stroke-opacity:1"
       d="m 10.583333,4e-8 0.264584,1.05833326 h 3.704166 L 14.816667,4e-8 Z"
       id="path14946"
       sodipodi:nodetypes="ccccc" />
    <path
       style="fill:#b8cad6;fill-opacity:1;stroke:#293a47;stroke-width:0.264583px;stroke-linecap:butt;stroke-linejoin:round;stroke-opacity:1"
       d="M 1.0583333,7.4083332 2.1166666,7.1437499 1.0583333,6.0854166 0,6.3499999 Z"
       id="path14948"
       sodipodi:nodetypes="ccccc" />
    <path
       style="fill:#dce5eb;fill-opacity:1;stroke:#293a47;stroke-width:0.264583px;stroke-linecap:butt;stroke-linejoin:round;stroke-opacity:1"
       d="M 1.0583333,9.5249998 2.1166666,9.7895832 V 7.1437499 L 1.0583333,7.4083332 Z"
       id="path14950"
       sodipodi:nodetypes="ccccc" />
    <path
       style="fill:#e1e8ed;fill-opacity:1;stroke:#293a47;stroke-width:0.264583px;stroke-linecap:butt;stroke-linejoin:round;stroke-opacity:1"
       d="M 1.0583333,9.5249999 2.1166666,9.7895832 1.0583333,10.847917 1.9999998e-8,10.583333 Z"
       id="path14952"
       sodipodi:nodetypes="ccccc" />
    <path
       style="fill:#dce4ea;fill-opacity:1;stroke:#293a47;stroke-width:0.264583px;stroke-linecap:butt;stroke-linejoin:round;stroke-opacity:1"
       d="M 9.5249999,1.0583333 9.7895832,2.1166666 10.847917,1.0583333 10.583333,2e-8 Z"
       id="path14954"
       sodipodi:nodetypes="ccccc" />
    <path
       style="fill:#dce5eb;fill-opacity:1;stroke:#293a47;stroke-width:0.264583px;stroke-linecap:butt;stroke-linejoin:round;stroke-opacity:1"
       d="M 7.4083333,1.0583333 7.1437499,2.1166666 H 9.7895832 L 9.5249999,1.0583333 Z"
       id="path14992"
       sodipodi:nodetypes="ccccc" />
    <path
       style="fill:#e1e8ed;fill-opacity:1;stroke:#293a47;stroke-width:0.264583px;stroke-linecap:butt;stroke-linejoin:round;stroke-opacity:1"
       d="M 7.4083334,1.0583333 7.1437501,2.1166666 6.0854166,1.0583333 6.3500006,2e-8 Z"
       id="path14994"
       sodipodi:nodetypes="ccccc" />
    <path
       style="fill:#7a9cb3;fill-opacity:1;stroke:#293a47;stroke-width:0.264583px;stroke-linecap:butt;stroke-linejoin:round;stroke-opacity:1"
       d="M 16.933333,6.35 15.875,6.0854167 V 2.3812501 l 1.058333,-0.2645834 z"
       id="path14996"
       sodipodi:nodetypes="ccccc" />
    <path
       style="fill:#7a9cb3;fill-opacity:1;stroke:#293a47;stroke-width:0.264583px;stroke-linecap:butt;stroke-linejoin:round;stroke-opacity:1"
       d="M 16.933333,14.816666 15.875,14.552083 v -3.704166 l 1.058333,-0.264584 z"
       id="path14998"
       sodipodi:nodetypes="ccccc" />
    <path
       style="fill:#5d86a2;fill-opacity:1;stroke:#293a47;stroke-width:0.264583px;stroke-linecap:butt;stroke-linejoin:round;stroke-opacity:1"
       d="M 16.933333,14.816666 15.875,14.552083 14.552083,15.875 l 0.264583,1.058333 z"
       id="path15000"
       sodipodi:nodetypes="ccccc" />
    <path
       style="fill:#5d86a2;fill-opacity:1;stroke:#293a47;stroke-width:0.264583px;stroke-linecap:butt;stroke-linejoin:round;stroke-opacity:1"
       d="M 15.875,7.4083333 14.816666,7.14375 15.875,6.0854167 16.933333,6.35 Z"
       id="path15002"
       sodipodi:nodetypes="ccccc" />
    <path
       style="fill:#7a9cb3;fill-opacity:1;stroke:#293a47;stroke-width:0.264583px;stroke-linecap:butt;stroke-linejoin:round;stroke-opacity:1"
       d="M 15.875,9.5249999 14.816666,9.7895833 V 7.14375 L 15.875,7.4083333 Z"
       id="path15004"
       sodipodi:nodetypes="ccccc" />
    <path
       style="fill:#7c9bb1;fill-opacity:1;stroke:#293a47;stroke-width:0.264583px;stroke-linecap:butt;stroke-linejoin:round;stroke-opacity:1"
       d="M 15.875,9.525 14.816666,9.7895833 15.875,10.847917 16.933333,10.583333 Z"
       id="path15006"
       sodipodi:nodetypes="ccccc" />
    <path
       style="fill:#7a9cb3;fill-opacity:1;stroke:#293a47;stroke-width:0.264583px;stroke-linecap:butt;stroke-linejoin:round;stroke-opacity:1"
       d="M 10.583333,16.933333 10.847916,15.875 h 3.704167 l 0.264583,1.058333 z"
       id="path15080"
       sodipodi:nodetypes="ccccc" />
    <path
       style="fill:#7a9cb3;fill-opacity:1;stroke:#293a47;stroke-width:0.264583px;stroke-linecap:butt;stroke-linejoin:round;stroke-opacity:1"
       d="M 2.1166669,16.933333 2.3812499,15.875 h 3.704166 l 0.264584,1.058333 z"
       id="path15082"
       sodipodi:nodetypes="ccccc" />
    <path
       style="fill:#7a9cb3;fill-opacity:1;stroke:#293a47;stroke-width:0.264583px;stroke-linecap:butt;stroke-linejoin:round;stroke-opacity:1"
       d="M 9.5249996,15.875 9.7895829,14.816666 10.847916,15.875 10.583333,16.933333 Z"
       id="path15084"
       sodipodi:nodetypes="ccccc" />
    <path
       style="fill:#7a9cb3;fill-opacity:1;stroke:#293a47;stroke-width:0.264583px;stroke-linecap:butt;stroke-linejoin:round;stroke-opacity:1"
       d="M 7.408333,15.875 7.1437496,14.816666 H 9.7895829 L 9.5249996,15.875 Z"
       id="path15086"
       sodipodi:nodetypes="ccccc" />
    <path
       style="fill:#60859f;fill-opacity:1;stroke:#293a47;stroke-width:0.264583px;stroke-linecap:butt;stroke-linejoin:round;stroke-opacity:1"
       d="M 7.4083329,15.875 7.1437496,14.816666 6.0854159,15.875 l 0.264584,1.058333 z"
       id="path15088"
       sodipodi:nodetypes="ccccc" />
    <path
       style="fill:#7a9cb3;fill-opacity:1;stroke:#293a47;stroke-width:0.264583px;stroke-linecap:butt;stroke-linejoin:round;stroke-opacity:1"
       d="m 3.4395833,3.4395833 0.79375,0.79375 H 12.7 l 0.79375,-0.79375 z"
       id="path17150"
       sodipodi:nodetypes="ccccc" />
    <path
       style="fill:#7a9cb3;fill-opacity:1;stroke:#293a47;stroke-width:0.264583px;stroke-linecap:butt;stroke-linejoin:round;stroke-opacity:1"
       d="M 3.4395833,13.49375 4.2333333,12.7 V 4.2333333 l -0.79375,-0.7937499 z"
       id="path17553"
       sodipodi:nodetypes="ccccc" />
    <path
       style="fill:#aac0cf;fill-opacity:1;stroke:#293a47;stroke-width:0.264583px;stroke-linecap:butt;stroke-linejoin:round;stroke-opacity:1"
       d="M 13.49375,13.49375 12.7,12.7 H 4.2333331 l -0.79375,0.79375 z"
       id="path17609"
       sodipodi:nodetypes="ccccc" />
    <path
       style="fill:#aac0cf;fill-opacity:1;stroke:#293a47;stroke-width:0.264583px;stroke-linecap:butt;stroke-linejoin:round;stroke-opacity:1"
       d="M 13.49375,3.4395827 12.7,4.2333327 V 12.7 l 0.79375,0.79375 z"
       id="path17611"
       sodipodi:nodetypes="ccccc" />
    <path
       style="fill:#dce5eb;fill-opacity:1;stroke:#293a47;stroke-width:0.264583px;stroke-linecap:butt;stroke-linejoin:round;stroke-opacity:1"
       d="m 1.8520833,5.0270833 0.79375,0.79375 V 3.175 L 3.175,2.6458333 h 2.6458333 l -0.79375,-0.79375 h -2.38125 l -0.79375,0.79375 z"
       id="path18741"
       sodipodi:nodetypes="ccccccccc" />
    <path
       style="fill:#dce5eb;fill-opacity:1;stroke:#293a47;stroke-width:0.264583px;stroke-linecap:butt;stroke-linejoin:round;stroke-opacity:1"
       d="m 11.90625,1.8520833 -0.79375,0.79375 h 2.645833 L 14.2875,3.175 v 2.6458333 l 0.79375,-0.79375 v -2.38125 l -0.79375,-0.79375 z"
       id="path19826"
       sodipodi:nodetypes="ccccccccc" />
    <path
       style="fill:#dce5eb;fill-opacity:1;stroke:#293a47;stroke-width:0.264583px;stroke-linecap:butt;stroke-linejoin:round;stroke-opacity:1"
       d="M 15.08125,11.90625 14.2875,11.1125 v 2.645833 L 13.758333,14.2875 H 11.1125 l 0.79375,0.79375 h 2.38125 l 0.79375,-0.79375 z"
       id="path19828"
       sodipodi:nodetypes="ccccccccc" />
    <path
       style="fill:#dce5eb;fill-opacity:1;stroke:#293a47;stroke-width:0.264583px;stroke-linecap:butt;stroke-linejoin:round;stroke-opacity:1"
       d="m 5.0270833,15.08125 0.79375,-0.79375 H 3.1750003 L 2.6458333,13.758333 V 11.1125 l -0.79375,0.79375 v 2.38125 l 0.79375,0.79375 z"
       id="path19830"
       sodipodi:nodetypes="ccccccccc" />
    <path
       style="fill:#dce5eb;fill-opacity:1;stroke:#293a47;stroke-width:0.264583px;stroke-linecap:butt;stroke-linejoin:round;stroke-opacity:1"
       d="m 6.8791666,4.4979166 0.79375,-0.5291667 V 2.1166666 H 7.4083333 L 6.8791666,2.38125 Z"
       id="path19900"
       sodipodi:nodetypes="cccccc" />
    <path
       style="fill:#7a9cb3;fill-opacity:1;stroke:#293a47;stroke-width:0.264583px;stroke-linecap:butt;stroke-linejoin:round;stroke-opacity:1"
       d="M 10.054167,4.4979166 9.2604165,3.9687499 V 2.1166666 H 9.5249998 L 10.054167,2.38125 Z"
       id="path20457"
       sodipodi:nodetypes="cccccc" />
    <rect
       style="opacity:1;fill:#b8cad6;fill-opacity:1;stroke:#293a47;stroke-width:0.264583;stroke-linejoin:miter;stroke-miterlimit:4;stroke-dasharray:none;stroke-opacity:1;stop-color:#000000"
       id="rect20521"
       width="1.5875"
       height="1.8520833"
       x="7.6729164"
       y="2.1166666" />
    <path
       style="fill:#131b20;fill-opacity:1;stroke:#293a47;stroke-width:0.264583;stroke-linecap:butt;stroke-linejoin:miter;stroke-miterlimit:4;stroke-dasharray:none;stroke-opacity:1"
       d="m 7.6729166,3.96875 -0.79375,0.5291666 0.79375,0.5291667 H 9.2604165 L 10.054167,4.4979166 9.2604166,3.96875 Z"
       id="path20777"
       sodipodi:nodetypes="ccccccc" />
  </g>
</svg>
