<?xml version="1.0" encoding="UTF-8" standalone="no"?>
<!-- Created with Inkscape (http://www.inkscape.org/) -->

<svg
   width="128"
   height="128"
   viewBox="0 0 33.866666 33.866668"
   version="1.1"
   id="svg26212"
   inkscape:version="1.3.2 (091e20e, 2023-11-25, custom)"
   sodipodi:docname="radialMenu.svg"
   inkscape:export-filename="radialMenu.png"
   inkscape:export-xdpi="96"
   inkscape:export-ydpi="96"
   xmlns:inkscape="http://www.inkscape.org/namespaces/inkscape"
   xmlns:sodipodi="http://sodipodi.sourceforge.net/DTD/sodipodi-0.dtd"
   xmlns:xlink="http://www.w3.org/1999/xlink"
   xmlns="http://www.w3.org/2000/svg"
   xmlns:svg="http://www.w3.org/2000/svg">
  <sodipodi:namedview
     id="namedview26214"
     pagecolor="#ffffff"
     bordercolor="#eeeeee"
     borderopacity="1"
     inkscape:pageshadow="0"
     inkscape:pageopacity="0"
     inkscape:pagecheckerboard="false"
     inkscape:document-units="mm"
     showgrid="true"
     units="px"
     inkscape:zoom="5.9223905"
     inkscape:cx="73.534496"
     inkscape:cy="65.767362"
     inkscape:window-width="1920"
     inkscape:window-height="1017"
     inkscape:window-x="1912"
     inkscape:window-y="-8"
     inkscape:window-maximized="1"
     inkscape:current-layer="layer3"
     inkscape:showpageshadow="0"
     inkscape:deskcolor="#d1d1d1">
    <inkscape:grid
       type="xygrid"
       id="grid26297"
       spacingx="1.0583333"
       spacingy="1.0583333"
       empspacing="4"
       originx="0"
       originy="0"
       units="px"
       visible="true" />
  </sodipodi:namedview>
  <defs
     id="defs26209">
    <linearGradient
       id="linearGradient1"
       inkscape:collect="always">
      <stop
         style="stop-color:#000000;stop-opacity:1;"
         offset="0.26556018"
         id="stop1" />
      <stop
         style="stop-color:#361212;stop-opacity:0;"
         offset="1"
         id="stop2" />
    </linearGradient>
    <radialGradient
       inkscape:collect="always"
       xlink:href="#linearGradient1"
       id="radialGradient2"
       cx="16.933332"
       cy="16.933332"
       fx="16.933332"
       fy="16.933332"
       r="16.117922"
       gradientTransform="matrix(1,0,0,0.99313609,0,0.11622884)"
       gradientUnits="userSpaceOnUse" />
  </defs>
  <g
     inkscape:groupmode="layer"
     id="layer3"
     inkscape:label="power"
     style="display:inline">
    <path
       id="path1"
       style="fill:url(#radialGradient2);stroke-width:0.264583"
       d="M 16.933333 1.0583333 A 15.985631 15.874999 0 0 0 6.5567057 4.8668864 L 13.375411 11.685075 A 6.3499999 6.3499994 0 0 1 16.933333 10.583333 A 6.3499999 6.3499994 0 0 1 20.526396 11.699544 L 27.337866 4.8880737 A 15.985631 15.874999 0 0 0 16.933333 1.0583333 z M 4.8503499 6.5401693 A 15.985631 15.874999 0 0 0 0.94774577 16.933333 A 15.985631 15.874999 0 0 0 4.8746379 27.351302 L 11.706262 20.519678 A 6.3499999 6.3499994 0 0 1 10.583333 16.933333 A 6.3499999 6.3499994 0 0 1 11.685075 13.375411 L 4.8503499 6.5401693 z M 29.037504 6.5680745 L 22.207947 13.398149 A 6.3499999 6.3499994 0 0 1 23.283333 16.933333 A 6.3499999 6.3499994 0 0 1 22.181592 20.491772 L 29.016317 27.326497 A 15.985631 15.874999 0 0 0 32.918921 16.933333 A 15.985631 15.874999 0 0 0 29.037504 6.5680745 z M 20.491772 22.181592 A 6.3499999 6.3499994 0 0 1 16.933333 23.283333 A 6.3499999 6.3499994 0 0 1 13.403316 22.202779 L 6.5851278 29.020451 A 15.985631 15.874999 0 0 0 16.933333 32.808333 A 15.985631 15.874999 0 0 0 27.309961 28.99978 L 20.491772 22.181592 z " />
    <g
       id="g3"
       transform="matrix(1.1292002,0,0,1.1292001,-2.1632373,-2.1632373)" />
  </g>
</svg>
